<svg width="512" height="512" viewBox="0 0 512 512" fill="none" xmlns="http://www.w3.org/2000/svg">
<path d="M340.415 171.5H172C171.448 171.5 171 171.948 171 172.5V331.763C171 332.138 171.21 332.482 171.545 332.653L257.983 376.823C258.275 376.973 258.623 376.969 258.912 376.813L340.889 332.658C341.213 332.484 341.415 332.145 341.415 331.778V172.5C341.415 171.948 340.967 171.5 340.415 171.5Z" stroke="#FEFEFE" stroke-width="13"/>
<path d="M195.665 205.016H306.781C307.333 205.016 307.781 205.463 307.781 206.016V243M307.781 265.344V288.804V311.702C307.781 312.052 307.598 312.376 307.299 312.557L256.715 343.239C256.402 343.428 256.011 343.432 255.694 343.248L202.89 312.555C202.582 312.376 202.392 312.046 202.392 311.69V239.531C202.392 238.979 202.84 238.531 203.392 238.531H274.146" stroke="#FEFEFE" stroke-width="13"/>
<path d="M275.873 273.996L256.692 263.377C256.391 263.211 256.025 263.211 255.723 263.377L236.543 273.996C236.224 274.172 236.027 274.507 236.027 274.87V298.27C236.027 298.633 236.224 298.968 236.543 299.145L255.723 309.763C256.025 309.93 256.391 309.93 256.692 309.763L275.873 299.145C276.191 298.968 276.388 298.633 276.388 298.27V274.87C276.388 274.507 276.191 274.172 275.873 273.996Z" stroke="#FEFEFE" stroke-width="13"/>
</svg>
